<?xml version="1.0" standalone="no"?>
<!DOCTYPE svg PUBLIC "-//W3C//DTD SVG 20010904//EN"
 "http://www.w3.org/TR/2001/REC-SVG-20010904/DTD/svg10.dtd">
<svg version="1.0" xmlns="http://www.w3.org/2000/svg"
 width="6350.000000pt" height="3877.000000pt" viewBox="0 0 6350.000000 3877.000000"
 preserveAspectRatio="xMidYMid meet">

<g transform="translate(0.000000,3877.000000) scale(0.100000,-0.100000)"
fill="#000000" stroke="none">
<path d="M50480 37625 c-377 -95 -849 -212 -1050 -260 -201 -47 -399 -98 -440
-111 -113 -37 -324 -144 -425 -215 -116 -83 -272 -240 -357 -359 -181 -255
-308 -600 -338 -915 -7 -73 -10 -1328 -10 -3777 0 -3435 -1 -3668 -17 -3668
-9 0 -716 88 -1570 195 -854 107 -1555 195 -1558 195 -3 0 -5 -205 -5 -455 0
-250 2 -455 5 -455 2 0 193 -23 422 -50 1484 -179 2817 -353 4081 -534 l502
-72 -2 470 -3 471 -445 55 -445 55 -3 3705 c-2 2594 0 3733 8 3800 12 110 61
262 111 347 19 32 70 94 114 139 127 129 166 144 655 260 407 96 1709 420
1716 426 1 2 -51 210 -117 463 -65 253 -119 461 -119 463 0 5 -54 -8 -710
-173z m-1800 -5430 l0 -3655 -95 0 -95 0 0 343 c1 188 9 1689 19 3335 l19
2994 73 319 c41 175 75 319 76 319 2 0 3 -1645 3 -3655z"/>
<path d="M24959 37122 c-66 -43 -145 -135 -183 -215 -58 -121 -77 -211 -83
-395 -11 -314 44 -521 170 -646 77 -77 113 -91 227 -90 124 1 140 9 140 74 0
123 58 462 152 884 l62 279 -33 27 c-79 66 -211 110 -331 110 -66 0 -82 -4
-121 -28z m-49 -445 c-54 -53 -114 -179 -142 -297 l-23 -95 -3 85 c-8 222 62
486 170 637 l33 45 3 -167 2 -167 -40 -41z"/>
<path d="M27175 36044 c-219 -25 -347 -51 -476 -95 -139 -47 -273 -131 -349
-216 -79 -89 -105 -160 -154 -433 -154 -842 -1006 -6167 -1822 -11385 -81
-517 -150 -943 -153 -947 -4 -4 -69 49 -146 119 -305 275 -799 683 -1002 828
-23 16 -140 100 -260 186 -1908 1366 -4095 2225 -6418 2519 -126 16 -273 31
-325 35 -52 3 -120 10 -150 15 -53 9 -206 19 -615 39 -1223 61 -2511 -45
-3695 -305 -795 -174 -1521 -401 -2345 -732 -456 -183 -1237 -566 -1649 -809
-34 -20 -77 -45 -96 -55 -19 -11 -106 -64 -193 -117 -87 -53 -166 -101 -175
-106 -151 -92 -650 -426 -727 -487 -5 -4 -73 -54 -150 -110 -77 -55 -142 -104
-145 -107 -3 -3 -32 -26 -65 -51 -179 -134 -532 -421 -671 -545 -12 -11 -50
-45 -85 -75 -389 -338 -806 -754 -1259 -1255 -15 -16 -73 -84 -129 -150 -56
-66 -121 -142 -144 -170 -145 -169 -429 -536 -604 -780 -51 -71 -97 -135 -102
-141 -20 -25 -265 -388 -341 -509 -283 -443 -551 -920 -788 -1400 -143 -291
-355 -772 -348 -790 11 -29 1142 -684 1155 -669 5 5 34 72 66 149 102 250 204
474 350 770 525 1064 1171 2015 1979 2915 178 199 613 637 831 839 1523 1405
3358 2417 5350 2951 897 240 1774 375 2750 421 274 13 1138 6 1280 -10 50 -6
185 -17 300 -26 1083 -82 2240 -331 3285 -708 742 -267 1514 -631 2185 -1029
733 -436 1423 -945 2075 -1531 151 -136 671 -647 730 -717 l37 -45 -43 -275
c-24 -151 -44 -282 -46 -291 -2 -11 -36 21 -98 91 -52 60 -98 106 -101 104 -3
-2 -57 -74 -119 -161 -62 -87 -117 -162 -121 -167 -5 -6 -44 29 -91 80 -45 49
-136 144 -201 210 l-118 121 97 196 98 196 -119 114 c-230 218 -330 310 -381
351 -27 23 -122 101 -210 174 -528 443 -1111 847 -1734 1204 -310 178 -901
474 -911 456 -3 -7 -23 -83 -43 -168 -20 -85 -41 -172 -47 -192 l-10 -37 -77
35 c-60 28 -451 197 -459 199 -1 0 5 77 13 170 7 94 14 191 14 216 l0 47 -162
62 c-879 335 -1903 583 -2853 689 -342 39 -944 79 -984 66 -22 -7 -22 -9 18
-248 l27 -157 -294 2 -295 3 -67 198 c-37 108 -69 200 -72 203 -7 7 -392 -12
-648 -32 -793 -61 -1590 -204 -2359 -425 -184 -53 -706 -223 -730 -238 -11 -7
10 -47 93 -186 59 -98 105 -178 104 -179 -2 -1 -50 -19 -108 -40 -58 -21 -180
-68 -273 -104 -92 -36 -169 -63 -170 -61 -5 6 -259 312 -267 322 -9 10 -355
-145 -655 -294 -952 -472 -1862 -1091 -2657 -1808 -87 -78 -158 -145 -158
-150 0 -4 74 -61 165 -126 91 -66 164 -122 163 -125 -2 -3 -97 -95 -212 -205
l-209 -200 -188 98 -189 97 -78 -83 c-831 -870 -1588 -1976 -2108 -3077 -79
-166 -90 -196 -76 -201 9 -3 100 -25 202 -49 102 -23 187 -44 189 -46 2 -1
-30 -79 -71 -171 -41 -92 -92 -212 -114 -265 l-39 -98 -50 1 c-27 0 -124 6
-215 13 -91 7 -167 12 -168 10 -2 -1 -26 -63 -54 -136 -374 -1005 -610 -2067
-702 -3153 -18 -204 -42 -702 -35 -709 3 -3 223 31 376 59 l33 6 -3 -291 -3
-291 -202 -67 -202 -66 0 -67 c0 -91 17 -385 36 -609 74 -906 261 -1834 541
-2685 89 -271 123 -365 133 -365 5 0 84 45 175 100 91 55 170 100 174 100 5 0
19 -28 31 -62 19 -50 157 -407 177 -455 2 -6 -65 -68 -149 -139 -84 -70 -159
-133 -166 -139 -11 -10 0 -44 63 -186 445 -1008 1097 -2037 1840 -2904 155
-181 317 -360 326 -360 4 0 58 70 119 155 62 85 116 159 120 164 5 4 50 -36
102 -90 51 -55 140 -147 197 -207 l105 -107 -97 -189 -97 -188 93 -89 c641
-613 1466 -1225 2276 -1689 331 -189 953 -508 965 -494 2 2 23 87 46 189 23
102 45 190 49 197 5 9 21 6 61 -13 30 -15 147 -66 260 -115 197 -85 205 -89
204 -116 0 -16 -7 -108 -14 -206 -8 -109 -9 -182 -3 -188 5 -5 94 -41 198 -79
1035 -386 2118 -624 3235 -710 179 -13 532 -32 536 -27 2 2 -12 91 -30 198
-19 107 -31 197 -28 200 4 3 133 3 286 0 l280 -6 65 -197 66 -198 96 0 c116 0
385 15 639 35 959 78 1921 275 2817 577 100 34 181 64 179 67 -2 3 -50 82
-106 174 -56 93 -98 172 -94 176 5 4 109 45 231 90 122 45 237 88 256 96 l35
14 129 -151 c70 -84 133 -158 138 -166 9 -11 40 -1 170 56 1152 501 2202 1169
3163 2010 78 69 142 128 142 132 0 3 -74 60 -165 125 -91 65 -165 121 -165
123 0 3 37 39 83 81 45 41 137 129 204 195 l123 120 192 -99 192 -99 114 120
c692 725 1281 1520 1778 2399 101 179 414 787 414 804 0 3 -85 26 -190 50
-104 25 -195 48 -201 51 -6 5 17 68 66 176 43 93 93 207 112 254 19 47 39 89
43 93 4 5 101 1 215 -8 114 -9 212 -12 216 -8 15 15 157 397 239 643 91 273
152 476 225 755 l52 200 1934 0 1934 0 3 -1482 2 -1483 360 0 360 0 0 495 0
495 3135 0 3135 0 0 -495 0 -495 360 0 360 0 0 1485 0 1485 1048 -2 1047 -3
-2 -40 c-1 -22 -5 -199 -9 -392 l-7 -353 464 0 464 0 3 223 c2 229 18 543 28
558 3 5 136 9 296 9 l290 0 -7 -146 -7 -147 23 6 c13 3 67 13 119 22 52 8 107
18 123 21 l27 6 0 -205 0 -206 -145 -47 -145 -48 5 -36 c2 -19 7 -100 10 -180
30 -736 219 -1689 467 -2357 l19 -52 125 74 c121 72 125 74 134 52 5 -12 35
-89 66 -172 31 -82 60 -156 64 -164 7 -14 -21 -41 -180 -172 l-44 -37 34 -78
c54 -128 230 -488 309 -634 316 -582 752 -1193 1173 -1644 l64 -70 84 117 84
118 31 -33 c18 -18 80 -83 139 -144 l107 -112 -67 -133 -67 -134 84 -79 c443
-416 983 -820 1509 -1128 256 -150 743 -400 754 -387 1 2 15 58 30 124 15 66
30 127 32 136 4 14 35 3 187 -62 l182 -79 -5 -88 c-3 -48 -5 -116 -5 -151 l0
-63 145 -54 c652 -243 1354 -406 2070 -479 175 -18 567 -41 574 -34 5 5 -29
224 -40 262 -5 16 7 17 197 15 l202 -3 49 -142 50 -141 96 4 c743 35 1349 127
1970 300 203 57 532 161 545 173 4 4 -25 60 -64 125 -39 65 -68 121 -63 125 5
5 81 35 169 68 88 34 167 64 176 67 11 5 41 -24 110 -108 76 -93 98 -114 114
-109 81 23 583 263 799 383 416 228 863 527 1225 817 137 109 400 336 401 345
0 4 -52 44 -115 90 -63 45 -115 85 -114 88 1 3 67 66 147 140 l145 134 133
-69 133 -69 94 100 c592 629 1058 1298 1447 2074 44 88 80 162 80 164 0 3 -63
20 -141 38 -113 26 -139 35 -135 48 2 8 39 93 82 187 l77 173 91 -8 c50 -4
118 -7 150 -7 l59 0 54 140 c210 548 371 1175 457 1775 41 281 76 663 76 818
l0 74 -27 -6 c-16 -3 -68 -12 -118 -21 -49 -9 -100 -18 -112 -21 l-23 -4 0
203 0 204 143 50 142 50 -3 177 -4 176 285 0 c157 0 288 -4 291 -9 11 -18 27
-345 29 -588 l2 -253 464 0 464 0 -7 372 c-4 205 -9 396 -9 423 l-2 50 681 5
680 5 76 38 c222 109 378 426 448 907 24 167 40 372 40 504 l0 101 -71 55
c-169 131 -339 357 -439 586 -49 113 -113 297 -131 379 -7 33 -15 62 -18 65
-7 6 -8 18 -17 200 -4 91 -1 187 9 295 8 88 16 194 17 235 1 89 8 120 25 120
7 0 25 10 41 22 15 13 25 18 22 13 -4 -6 27 -10 82 -10 56 0 86 4 82 10 -3 6
1 5 9 -1 17 -14 174 -32 273 -32 84 0 133 13 146 38 13 25 13 458 -1 800 -6
146 -10 280 -10 298 1 19 -2 31 -7 28 -5 -3 -6 9 -4 26 7 50 -18 196 -35 202
-8 3 -11 10 -8 16 9 14 -11 72 -33 96 -9 11 -22 29 -29 40 -6 10 -16 18 -23
16 -6 -1 -9 1 -6 6 7 12 -38 54 -48 45 -4 -5 -6 -1 -4 7 3 15 -119 103 -133
95 -4 -3 -9 -1 -11 3 -4 10 -120 57 -163 66 -69 15 -79 15 -92 4 -11 -8 -12
-7 -7 6 5 12 0 16 -17 18 -13 0 -35 3 -49 4 -130 17 -311 20 -1070 15 -481 -3
-1177 -5 -1547 -3 l-671 2 -113 143 c-326 410 -767 879 -1129 1202 -80 71
-150 133 -155 139 -6 6 -35 31 -65 56 -52 42 -81 66 -119 100 -9 8 -59 49
-111 89 -52 41 -99 79 -105 84 -133 116 -769 550 -1050 715 -947 556 -1928
939 -2975 1162 -1333 284 -2741 287 -4085 10 -413 -86 -909 -224 -1285 -358
-156 -56 -509 -194 -595 -232 -22 -10 -60 -27 -85 -38 -143 -60 -570 -270
-750 -368 -69 -37 -273 -154 -340 -194 -134 -81 -275 -170 -311 -196 -26 -19
-50 -34 -54 -34 -7 0 -97 -60 -105 -70 -3 -4 -31 -24 -64 -44 -62 -39 -302
-210 -322 -230 -6 -6 -22 -18 -34 -26 -19 -13 -130 -99 -189 -146 -119 -95
-274 -223 -327 -270 -236 -207 -243 -214 -529 -499 -234 -233 -402 -410 -457
-480 -13 -16 -30 -37 -38 -46 -20 -21 -52 -59 -123 -144 -32 -38 -70 -83 -84
-100 -14 -16 -44 -55 -67 -85 -22 -30 -43 -57 -46 -60 -4 -3 -19 -22 -34 -42
l-28 -38 -138 0 c-153 0 -144 -4 -155 74 -4 25 -10 46 -14 46 -3 0 -7 15 -8
33 -2 28 -86 433 -99 480 -3 10 -10 14 -17 10 -9 -5 -9 -3 0 8 12 15 6 72 -8
64 -4 -3 -6 4 -4 15 6 29 -16 131 -26 124 -5 -3 -6 2 -3 10 9 23 -17 129 -35
144 -9 7 -10 11 -3 7 6 -3 12 -1 12 5 0 18 -75 382 -151 730 -39 179 -73 337
-76 353 -3 15 -10 27 -15 27 -5 0 -7 4 -3 9 5 9 -58 318 -72 351 -3 8 -5 25
-4 38 1 12 -3 22 -9 22 -6 0 -9 4 -5 9 5 10 -29 191 -43 222 -5 12 -32 -21
-101 -128 -52 -80 -94 -151 -94 -158 0 -27 77 -384 83 -380 3 1 6 -22 6 -54 1
-46 0 -52 -8 -31 -10 26 -69 218 -93 305 -8 28 -18 63 -23 79 l-8 28 -32 -52
c-18 -28 -32 -54 -32 -56 0 -3 -12 -21 -26 -40 -15 -19 -23 -34 -20 -34 4 0
-2 -10 -13 -22 -11 -11 -18 -25 -15 -30 3 -4 0 -8 -6 -8 -6 0 -8 -4 -5 -10 3
-5 2 -10 -4 -10 -14 0 -42 -55 -33 -65 4 -5 2 -5 -4 -2 -6 3 -18 -7 -28 -24
l-17 -29 -755 0 c-424 0 -754 -4 -754 -9 0 -5 7 -28 16 -52 13 -34 17 -83 18
-214 1 -166 0 -171 -27 -226 -36 -74 -110 -142 -200 -184 -128 -61 -169 -65
-638 -65 l-419 0 0 205 0 205 -360 0 -360 0 0 -205 0 -205 -3135 0 -3135 0 0
205 0 205 -360 0 -360 0 0 -205 0 -205 -1107 0 -1108 0 -24 83 c-38 128 -213
636 -275 797 -31 80 -56 146 -56 148 0 1 2265 2 5033 2 l5033 0 86 29 c179 60
349 169 468 298 141 153 209 325 210 526 0 70 -277 1768 -1380 8450 -1304
7896 -1382 8366 -1411 8427 -46 96 -95 165 -179 254 -134 141 -283 235 -460
291 -187 58 67 55 -4125 53 -2117 0 -3863 -3 -3880 -4z m2324 -899 c167 -59
298 -268 378 -605 27 -118 21 24 88 -2075 19 -610 62 -1939 95 -2953 33 -1013
60 -1851 60 -1862 0 -20 -8 -20 -529 -20 l-530 0 -26 57 c-46 101 -156 255
-244 343 -190 188 -412 297 -675 330 -278 35 -432 -34 -534 -242 -49 -98 -90
-258 -100 -390 l-7 -93 -774 -3 -773 -2 6 32 c3 18 235 1610 516 3538 547
3762 518 3584 595 3697 75 112 212 203 365 242 72 19 118 20 1061 20 840 1
993 -1 1028 -14z m5572 -14 c114 -43 187 -110 234 -214 17 -36 44 -164 90
-427 110 -625 643 -3624 1056 -5949 214 -1207 389 -2200 387 -2207 -2 -7 -81
-113 -177 -234 -114 -147 -178 -219 -187 -216 -17 7 -41 24 -345 251 -170 126
-248 190 -252 207 -3 12 -49 231 -103 485 l-97 462 52 75 c165 239 199 480 79
569 -37 28 -121 33 -191 13 -67 -19 -185 -96 -249 -163 -25 -26 -364 -475
-752 -998 -750 -1008 -778 -1049 -811 -1201 -30 -132 -8 -222 66 -272 30 -21
44 -23 110 -20 61 2 87 9 140 36 77 39 160 108 234 195 l54 63 423 53 c233 29
437 53 453 54 27 2 60 -28 313 -286 155 -158 282 -291 282 -296 0 -5 -35 -53
-78 -107 -42 -55 -99 -126 -125 -160 l-48 -61 56 -97 c31 -53 58 -103 61 -111
5 -13 -234 -15 -2098 -15 -1965 0 -2105 1 -2128 17 -70 48 -127 185 -149 358
-6 50 -29 455 -51 900 -278 5679 -401 8769 -361 9023 25 158 110 250 265 285
42 9 480 12 1923 11 l1868 -2 56 -21z m533 -8349 c38 -161 66 -295 64 -298 -5
-5 -378 274 -378 283 0 13 235 322 240 316 4 -5 37 -140 74 -301z m-215 -134
c61 -46 63 -47 106 -81 17 -13 134 -102 260 -198 127 -95 271 -205 321 -244
49 -38 103 -79 118 -90 15 -11 44 -33 64 -49 21 -15 46 -34 56 -41 18 -13 16
-18 -35 -84 -30 -39 -58 -71 -64 -71 -5 0 -28 17 -51 38 -22 20 -101 91 -175
156 -73 65 -141 126 -149 135 -8 9 -33 31 -55 50 -22 19 -80 71 -130 116 -49
45 -110 100 -135 122 -25 22 -89 79 -142 127 l-97 87 22 34 c12 19 24 35 26
35 2 0 29 -19 60 -42z m-7745 -400 c2 -7 27 -164 56 -348 122 -783 360 -2093
486 -2674 28 -130 32 -161 22 -175 -7 -9 -40 -48 -73 -87 -61 -73 -204 -270
-244 -335 l-21 -37 32 -5 c18 -3 219 -25 446 -48 227 -24 411 -46 410 -50 -3
-7 -455 -472 -1180 -1214 l-177 -181 14 -29 c18 -41 31 -71 125 -290 45 -104
88 -203 95 -220 15 -32 544 -1262 552 -1282 4 -10 -31 -13 -156 -13 l-161 0 0
-430 0 -430 -188 0 -188 0 -74 158 c-477 1023 -1072 1980 -1789 2877 -140 175
-321 390 -446 530 l-72 80 308 2105 c169 1158 308 2106 308 2108 1 1 431 2
956 2 756 0 956 -3 959 -12z m1598 -63 c39 -406 58 -814 58 -1260 0 -447 -14
-656 -52 -787 -18 -62 -28 -44 -28 50 0 161 -34 708 -66 1052 -29 324 -100
910 -119 998 -6 23 -5 23 97 20 l103 -3 7 -70z m922 33 c3 -24 23 -617 46
-1318 22 -701 43 -1321 47 -1377 l6 -103 -134 0 c-74 0 -199 -5 -279 -10 -133
-9 -145 -9 -154 7 -18 33 -101 116 -140 140 -57 37 -141 63 -224 70 -60 5 -72
9 -67 22 95 311 144 1009 116 1676 -11 255 -40 679 -59 863 l-8 72 422 0 423
0 5 -42z m4969 -370 c-37 -8 -563 -61 -568 -56 -2 1 60 88 137 192 l140 189
159 -159 c154 -154 158 -159 132 -166z m-10163 -5733 c362 -498 776 -1168
1014 -1642 l36 -73 -273 0 -273 0 -73 138 c-158 293 -341 600 -543 910 l-100
152 48 336 c42 291 50 333 62 317 8 -10 53 -72 102 -138z m-9530 -1299 c1569
-159 2945 -877 3970 -2071 308 -359 569 -755 794 -1205 777 -1556 831 -3363
149 -4972 -802 -1895 -2569 -3261 -4598 -3557 -487 -71 -1068 -81 -1550 -26
-1158 132 -2251 605 -3155 1365 -174 146 -564 536 -710 710 -792 941 -1252
2039 -1381 3290 -17 167 -23 756 -10 942 103 1430 683 2728 1671 3742 1041
1067 2383 1689 3875 1796 181 13 764 4 945 -14z m35150 -487 c908 -53 1832
-252 2670 -574 1021 -394 1904 -930 2755 -1673 132 -116 710 -690 702 -698 -5
-6 -869 -6 -874 0 -3 2 16 44 41 94 l45 89 -112 105 c-511 476 -1013 847
-1608 1189 -192 110 -635 336 -643 328 -2 -2 -18 -64 -35 -138 -17 -74 -33
-136 -36 -139 -3 -3 -17 1 -32 8 -16 7 -98 44 -183 81 l-155 68 0 33 c1 18 5
86 9 150 l8 118 -44 18 c-23 11 -120 46 -214 80 -621 222 -1296 375 -1944 441
-227 24 -617 47 -626 38 -4 -3 5 -70 18 -148 l25 -142 -66 7 c-36 3 -129 6
-206 6 l-141 0 -45 138 -46 137 -172 -2 c-682 -8 -1615 -184 -2361 -444 l-120
-42 16 -24 c33 -51 134 -221 134 -226 0 -3 -17 -11 -37 -17 -21 -7 -107 -39
-191 -72 -85 -33 -157 -56 -161 -52 -4 5 -43 52 -86 104 -43 52 -84 101 -91
109 -10 11 -35 3 -150 -49 -196 -87 -612 -301 -789 -405 -357 -209 -705 -450
-1030 -710 -194 -156 -475 -401 -475 -414 0 -4 53 -45 117 -91 l117 -84 -79
-73 -80 -73 -180 0 c-409 -1 -839 1 -843 4 -7 8 491 506 646 644 872 783 1820
1357 2906 1762 1148 427 2399 612 3646 539z m-24188 -749 c75 -178 183 -457
253 -655 32 -88 63 -177 71 -197 l13 -38 -268 0 -269 0 -28 80 c-15 44 -32 80
-37 80 -5 0 -69 -36 -142 -80 -118 -71 -138 -80 -182 -80 l-49 0 -38 108 c-21
59 -63 169 -93 246 -41 105 -51 142 -42 152 6 7 80 70 165 140 85 70 154 128
154 129 0 2 -22 56 -50 120 -27 64 -50 121 -50 126 0 6 108 8 268 7 l267 -3
57 -135z m4548 -5465 l0 -4875 -125 0 -125 0 0 4868 c0 2678 3 4872 7 4875 3
4 60 7 125 7 l118 0 0 -4875z m6940 0 l0 -4875 -125 0 -125 0 0 4868 c0 2678
3 4872 7 4875 3 4 60 7 125 7 l118 0 0 -4875z m-11067 4310 c103 -321 238
-844 316 -1228 45 -222 121 -648 121 -683 0 -12 -43 -14 -275 -14 l-274 0 -6
33 c-3 17 -19 122 -36 232 -69 454 -212 1088 -344 1530 -32 105 -59 198 -62
208 -5 16 10 17 263 15 l268 -3 29 -90z m3527 -915 l0 -1010 -870 0 c-478 0
-870 2 -870 4 0 15 -45 308 -71 461 -77 462 -192 978 -310 1401 -21 77 -39
144 -39 147 0 4 486 7 1080 7 l1080 0 0 -1010z m6990 820 l0 -190 -3135 0
-3135 0 0 190 0 190 3135 0 3135 0 0 -190z m2936 141 c-14 -27 -22 -52 -18
-56 4 -5 2 -5 -4 -2 -9 5 -51 -65 -48 -83 0 -3 -6 -11 -13 -18 -7 -8 -11 -18
-8 -23 4 -5 2 -9 -3 -9 -10 0 -37 -56 -31 -64 2 -2 -4 -13 -14 -24 -10 -10
-20 -30 -22 -42 -3 -13 -9 -26 -13 -29 -17 -11 -53 -92 -46 -103 4 -6 3 -8 -3
-5 -5 3 -17 -10 -27 -29 -14 -30 -14 -39 -4 -53 11 -14 11 -14 -3 -4 -14 11
-22 -1 -65 -95 -27 -59 -48 -110 -46 -114 1 -5 -2 -8 -8 -8 -5 0 -10 -4 -10
-10 0 -5 -22 -56 -50 -114 -90 -189 -261 -599 -256 -613 3 -8 2 -12 -3 -8 -10
6 -36 -60 -35 -87 1 -10 -2 -15 -6 -13 -4 3 -15 -17 -24 -43 -10 -26 -22 -56
-27 -67 -6 -12 -11 -27 -13 -35 -1 -8 -7 -25 -14 -37 -15 -28 -15 -36 1 -28 6
4 5 1 -4 -7 -8 -7 -27 -42 -40 -78 l-25 -65 -667 -3 -667 -2 0 1010 0 1010
1120 0 1120 0 -24 -49z m-3016 -511 l0 -70 -3075 0 -3075 0 0 70 0 70 3075 0
3075 0 0 -70z m4870 -596 c0 -8 -19 -13 -24 -6 -3 5 1 9 9 9 8 0 15 -2 15 -3z
m-4790 -449 l0 -415 -3135 0 -3135 0 0 415 0 415 3135 0 3135 0 0 -415z m6944
407 c3 -5 -1 -9 -9 -9 -8 0 -12 4 -9 9 3 4 7 8 9 8 2 0 6 -4 9 -8z m17130 -33
c-3 -5 -10 -7 -15 -3 -5 3 -7 10 -3 15 3 5 10 7 15 3 5 -3 7 -10 3 -15z
m-4264 -485 c0 -8 -19 -13 -24 -6 -3 5 1 9 9 9 8 0 15 -2 15 -3z m-15550 -239
c-7 -8 -20 -15 -29 -15 -11 0 -8 5 9 14 33 19 35 19 20 1z m16947 -20 c0 -8
-4 -12 -9 -9 -5 3 -6 10 -3 15 9 13 12 11 12 -6z m-8262 -805 c294 -17 523
-52 800 -122 753 -189 1422 -576 1972 -1142 651 -669 1042 -1490 1160 -2436
28 -225 25 -766 -5 -987 -70 -517 -200 -943 -419 -1375 -408 -808 -1065 -1460
-1875 -1863 -436 -217 -883 -349 -1388 -412 -206 -25 -734 -25 -940 0 -617 77
-1156 259 -1675 568 -538 320 -1007 771 -1358 1304 -811 1234 -905 2829 -245
4150 127 253 305 530 484 755 138 173 471 506 644 644 139 111 415 299 555
378 697 395 1504 584 2290 538z m-22921 -152 c6 -62 26 -378 26 -400 0 -5
-130 -8 -289 -8 l-288 0 -7 183 c-4 100 -9 208 -13 240 l-6 57 286 0 285 0 6
-72z m2986 -168 l0 -240 -813 0 -814 0 -7 148 c-3 81 -9 189 -13 240 l-6 92
827 0 826 0 0 -240z m6990 0 l0 -240 -3135 0 -3135 0 0 240 0 240 3135 0 3135
0 0 -240z m1776 218 c-1 -13 -5 -26 -10 -30 -5 -3 -10 -22 -10 -41 -1 -19 -5
-33 -10 -30 -5 4 -7 -6 -4 -20 3 -15 2 -24 -2 -22 -4 2 -25 -66 -47 -153 l-39
-157 -467 -3 -467 -2 0 240 0 240 528 0 529 0 -1 -22z m3554 -44 c0 -8 -19
-13 -24 -6 -3 5 1 9 9 9 8 0 15 -2 15 -3z m-143 -633 c0 -11 -5 -18 -9 -15 -4
3 -5 11 -1 19 7 21 12 19 10 -4z m15298 -70 c3 -5 2 -12 -3 -15 -5 -3 -9 1 -9
9 0 17 3 19 12 6z m-151 -349 c3 -5 -1 -9 -9 -9 -8 0 -12 4 -9 9 3 4 7 8 9 8
2 0 6 -4 9 -8z m-20419 -217 l0 -70 -3070 0 -3070 0 -3 59 c-2 32 -1 65 2 72
5 12 490 14 3073 12 l3068 -3 0 -70z m85 -2850 l0 -585 -3135 0 -3135 0 0 585
0 585 3135 0 3135 0 0 -585z m-85 -860 l0 -70 -3070 0 -3070 0 -3 59 c-2 32
-1 65 2 72 5 12 490 14 3073 12 l3068 -3 0 -70z"/>
<path d="M14560 18480 c-1080 -68 -2066 -415 -2941 -1036 -1230 -875 -2068
-2241 -2288 -3734 -70 -474 -80 -1023 -25 -1485 194 -1649 1099 -3122 2474
-4030 206 -136 353 -220 600 -344 654 -326 1302 -506 2060 -572 186 -17 702
-17 890 0 1141 99 2186 512 3054 1207 1210 969 1947 2341 2092 3896 20 213 23
732 5 933 -83 932 -348 1742 -821 2512 -236 383 -510 724 -856 1063 -936 917
-2137 1466 -3459 1580 -172 15 -615 20 -785 10z m610 -930 c1203 -74 2308
-580 3145 -1441 785 -807 1249 -1842 1336 -2979 15 -197 6 -707 -15 -880 -75
-600 -210 -1062 -461 -1575 -321 -655 -758 -1197 -1340 -1659 -134 -106 -438
-310 -595 -399 -952 -536 -2059 -731 -3145 -552 -1206 198 -2299 860 -3035
1840 -313 417 -546 861 -710 1355 -217 649 -291 1309 -224 1995 145 1502 1004
2855 2305 3630 821 490 1783 723 2739 665z"/>
<path d="M49813 13490 c-891 -59 -1707 -398 -2373 -986 -688 -607 -1157 -1476
-1284 -2379 -43 -307 -52 -691 -22 -975 147 -1403 1000 -2599 2273 -3188 1177
-545 2573 -467 3692 205 279 168 502 343 747 588 310 309 554 645 741 1020
250 499 388 1030 412 1590 44 1003 -264 1927 -905 2713 -104 128 -372 396
-507 508 -606 500 -1337 808 -2110 888 -184 20 -497 27 -664 16z m717 -679
c568 -85 1065 -285 1507 -608 684 -499 1152 -1226 1316 -2043 52 -256 61 -364
61 -680 0 -322 -9 -420 -64 -690 -248 -1210 -1163 -2196 -2360 -2539 -321 -92
-563 -125 -930 -125 -294 0 -410 11 -662 60 -1092 213 -2021 977 -2447 2012
-162 394 -236 754 -248 1193 -12 479 56 883 224 1313 443 1142 1484 1957 2693
2110 191 24 187 24 490 21 222 -3 315 -8 420 -24z"/>
<path d="M37091 28325 c-1 -6 10 -69 24 -140 14 -72 28 -146 31 -165 3 -19 7
-42 10 -50 4 -8 8 -30 9 -47 12 -106 38 -213 57 -230 21 -18 21 -18 15 16 -4
18 -7 38 -7 43 0 5 -4 6 -10 3 -5 -3 -7 0 -4 8 3 8 -2 43 -11 78 -8 35 -18 75
-20 89 -13 66 -27 126 -32 140 -3 8 -8 29 -10 45 -5 40 -51 223 -52 210z"/>
<path d="M37214 27658 c4 -18 10 -54 13 -80 3 -26 10 -45 14 -42 5 3 6 -2 3
-9 -3 -8 11 -102 31 -209 20 -106 39 -209 42 -228 2 -19 11 -62 19 -95 9 -33
17 -73 18 -90 2 -16 4 -32 6 -35 1 -3 2 -8 1 -12 0 -4 11 -67 25 -140 14 -73
28 -151 31 -173 3 -22 9 -42 14 -43 5 -2 7 -7 4 -12 -3 -4 5 -65 17 -134 17
-101 25 -126 36 -121 12 4 12 3 3 -9 -11 -14 -8 -68 6 -106 3 -8 7 -31 9 -50
2 -19 9 -60 16 -90 6 -30 12 -59 13 -65 9 -69 19 -115 24 -115 3 0 6 -15 7
-32 0 -18 6 -62 13 -98 7 -36 15 -81 17 -100 3 -19 12 -62 20 -95 9 -33 15
-68 15 -78 0 -43 69 -380 81 -395 11 -13 11 -14 -1 -8 -10 6 -12 4 -8 -10 3
-11 20 -100 38 -199 18 -99 36 -181 40 -183 5 -2 6 -9 3 -15 -2 -7 5 -61 17
-122 11 -60 22 -121 25 -135 3 -14 13 -72 24 -130 11 -58 22 -116 25 -130 3
-14 9 -50 15 -80 5 -30 12 -68 15 -85 3 -16 17 -98 32 -182 15 -84 32 -149 37
-146 5 4 6 1 2 -6 -11 -17 45 -321 57 -314 6 4 7 1 2 -6 -9 -15 15 -171 26
-171 5 0 6 -6 3 -13 -2 -7 7 -71 21 -141 14 -70 25 -136 25 -147 0 -10 3 -19
8 -19 4 0 7 -15 8 -32 1 -32 9 -88 20 -138 3 -14 8 -36 10 -50 5 -29 20 -111
70 -380 20 -107 38 -206 40 -220 3 -14 30 -160 60 -325 31 -165 58 -311 60
-325 16 -89 24 -134 24 -137 0 -2 6 -1 13 3 9 5 9 4 1 -5 -8 -9 -8 -31 3 -84
15 -80 32 -166 39 -212 19 -113 36 -202 41 -215 7 -17 9 -32 11 -78 1 -22 6
-31 14 -26 7 5 8 3 4 -5 -9 -14 65 -432 75 -425 4 2 5 -12 2 -31 -3 -22 0 -35
7 -35 6 0 8 -4 5 -10 -3 -5 -1 -36 5 -67 6 -32 22 -119 36 -193 14 -74 28
-148 30 -165 3 -16 16 -87 29 -157 14 -69 25 -136 25 -148 0 -11 4 -19 8 -16
5 3 6 -9 4 -26 -3 -19 -1 -28 5 -25 6 4 8 -4 5 -19 -3 -15 2 -33 14 -46 11
-12 13 -18 6 -14 -9 6 -12 1 -9 -16 3 -13 13 -71 23 -130 10 -59 21 -105 25
-102 4 2 11 -1 15 -7 5 -8 3 -9 -6 -4 -10 6 -12 0 -7 -31 4 -21 7 -45 7 -52 0
-7 4 -11 9 -8 4 3 6 -5 4 -17 -2 -12 12 -103 32 -202 19 -99 38 -200 41 -225
3 -24 7 -46 9 -49 9 -8 45 32 38 42 -3 6 -1 7 6 3 7 -4 46 26 99 78 48 46 99
94 115 106 15 12 25 26 21 31 -3 5 0 8 8 7 7 -2 12 3 10 10 -1 8 1 11 6 8 5
-3 22 8 37 25 l29 29 -18 88 c-10 48 -22 92 -27 98 -5 6 -7 13 -4 15 2 3 -21
110 -51 239 -30 129 -64 281 -75 337 -12 56 -25 100 -29 98 -5 -3 -6 4 -3 15
3 11 -2 32 -12 46 -10 15 -12 23 -4 19 9 -6 10 -3 5 11 -4 10 -13 45 -19 76
-5 31 -14 55 -18 53 -4 -3 -5 3 -3 12 2 10 -5 54 -16 98 -22 83 -27 107 -29
139 -1 11 -6 16 -15 13 -21 -8 -28 4 -12 22 13 14 11 28 -8 108 -12 51 -25 95
-28 99 -4 3 -4 12 -1 20 3 8 1 14 -5 14 -5 0 -7 12 -4 26 4 20 2 25 -8 19 -9
-5 -11 -4 -6 4 8 13 -53 302 -63 297 -3 -2 -7 16 -8 41 -1 30 -7 50 -20 60
-10 8 -12 12 -5 8 6 -3 12 -3 12 2 0 16 -34 158 -40 163 -3 3 -6 18 -7 34 -1
16 -5 37 -9 45 -3 9 -8 31 -10 49 -2 18 -6 38 -10 44 -4 7 -8 21 -9 32 -4 48
-39 185 -47 180 -4 -3 -5 1 -2 9 4 11 -30 177 -81 395 -5 21 -8 22 -23 11 -13
-11 -13 -8 2 9 11 12 15 22 10 22 -5 0 -9 10 -10 23 -1 24 -4 41 -35 175 -11
50 -24 90 -28 88 -4 -3 -8 1 -8 9 0 8 5 11 10 8 6 -3 7 -1 3 5 -4 7 -9 20 -11
29 -2 10 -15 70 -30 133 -14 63 -27 121 -27 128 -1 6 -5 12 -10 12 -5 0 -6 4
-3 10 3 5 -2 46 -12 90 -13 60 -21 79 -32 75 -11 -4 -11 -2 -2 8 8 11 5 41
-14 128 -33 147 -34 151 -47 143 -7 -5 -8 -2 -2 7 9 14 7 56 -4 74 -3 5 -7 18
-8 30 -1 11 -10 49 -19 85 -9 36 -17 73 -16 83 0 9 -5 17 -10 17 -6 0 -8 4 -5
9 6 9 -64 332 -73 341 -3 3 -6 12 -6 20 0 36 -49 239 -56 234 -5 -3 -6 1 -3 9
3 8 -22 133 -56 278 -34 145 -63 275 -66 288 -3 13 -12 51 -20 85 -8 34 -17
75 -20 91 -3 17 -12 55 -20 85 -8 30 -16 64 -18 75 -2 11 -11 54 -20 95 -9 41
-22 99 -28 128 -8 40 -15 52 -26 47 -12 -4 -12 -3 -3 9 13 16 5 86 -10 86 -5
0 -6 6 -4 13 7 18 -60 299 -68 290 -5 -4 -6 -1 -2 7 3 8 -11 83 -30 165 -19
83 -37 161 -40 175 -4 27 -120 528 -131 570 -4 14 -12 31 -18 39 -8 11 -8 13
1 8 7 -5 9 0 6 13 -3 11 -10 23 -16 27 -6 4 -7 1 -2 -7 5 -9 4 -11 -4 -6 -9 6
-9 11 0 22 16 20 3 50 -15 35 -12 -10 -14 -9 -11 6 1 10 8 17 15 15 8 -2 10 5
7 20 -3 13 -18 77 -33 143 -14 66 -29 122 -33 125 -3 3 -7 20 -7 38 -1 18 -5
40 -9 50 -4 9 -9 30 -11 46 -2 16 -15 74 -28 130 -14 56 -28 117 -31 136 -4
19 -10 39 -13 45 -3 5 -7 20 -8 33 -7 61 -49 220 -58 215 -5 -4 -6 -1 -1 6 9
15 -26 181 -38 181 -4 0 -6 4 -2 9 3 5 -2 43 -11 84 -11 51 -22 77 -37 86 -19
12 -20 11 -13 -21z m97 -365 c13 -16 12 -17 -3 -4 -17 13 -22 21 -14 21 2 0
10 -8 17 -17z m564 -2463 c-3 -5 -12 -10 -18 -10 -7 0 -6 4 3 10 19 12 23 12
15 0z m-35 -234 c0 -2 -7 -7 -16 -10 -8 -3 -12 -2 -9 4 6 10 25 14 25 6z m55
-444 c-2 -9 -4 -18 -4 -20 -1 -2 -6 0 -11 3 -8 5 -8 11 -1 19 6 7 7 17 3 21
-4 5 -2 5 5 2 6 -4 10 -15 8 -25z m140 -31 c3 -5 2 -12 -3 -15 -5 -3 -9 1 -9
9 0 17 3 19 12 6z m-74 -368 c13 -16 12 -17 -3 -4 -17 13 -22 21 -14 21 2 0
10 -8 17 -17z m636 -2160 c0 -9 -4 -10 -14 -2 -7 6 -13 12 -13 14 0 1 6 2 13
2 8 0 14 -6 14 -14z m-76 -880 c13 -16 12 -17 -3 -4 -17 13 -22 21 -14 21 2 0
10 -8 17 -17z"/>
<path d="M44647 26880 c-227 -27 -397 -149 -497 -355 -52 -107 -80 -211 -86
-320 -5 -84 -1 -110 55 -369 199 -912 392 -1666 521 -2041 46 -135 165 -382
209 -435 16 -19 44 -55 63 -80 44 -58 114 -111 207 -158 l75 -37 143 -2 c150
-1 239 -5 728 -27 165 -8 307 -14 315 -14 8 0 170 -8 360 -16 190 -9 741 -34
1225 -56 1389 -63 3081 -142 3330 -155 101 -6 820 -39 1060 -50 72 -3 166 -8
210 -9 44 -2 116 -7 160 -10 44 -3 157 -9 250 -12 94 -4 188 -7 210 -9 108 -6
321 -17 415 -20 255 -8 487 -38 610 -77 127 -40 258 -109 412 -215 206 -143
273 -199 432 -358 286 -286 532 -575 855 -1005 47 -63 88 -117 92 -120 3 -3
26 -34 51 -70 123 -178 271 -386 281 -397 9 -9 216 -5 916 18 497 16 906 30
907 32 2 2 -21 122 -50 268 -395 1925 -815 3313 -1118 3696 -99 125 -272 269
-466 387 -526 322 -1381 610 -2447 825 -327 66 -382 74 -1835 257 -767 96
-1642 206 -1945 244 -302 39 -1607 203 -2900 365 -1292 162 -2393 301 -2445
309 -132 21 -223 25 -303 16z"/>
<path d="M39953 26636 c-153 -37 -302 -159 -370 -301 l-36 -77 89 -411 c99
-458 93 -442 194 -507 75 -48 157 -70 261 -70 106 0 150 18 215 87 111 117
174 331 174 588 0 323 -92 556 -264 667 -56 36 -63 38 -135 37 -42 0 -100 -6
-128 -13z m308 -142 c48 -71 98 -187 125 -292 29 -116 52 -370 36 -398 -11
-18 -11 -18 -12 2 0 43 -41 181 -74 249 -18 39 -54 92 -79 118 l-47 48 0 159
c0 95 4 160 10 160 5 0 23 -21 41 -46z"/>
</g>
</svg>
